<?xml version="1.0" standalone="no"?>
<!DOCTYPE svg PUBLIC "-//W3C//DTD SVG 20010904//EN"
 "http://www.w3.org/TR/2001/REC-SVG-20010904/DTD/svg10.dtd">
<svg version="1.0" xmlns="http://www.w3.org/2000/svg"
 width="512.000000pt" height="512.000000pt" viewBox="0 0 512.000000 512.000000"
 preserveAspectRatio="xMidYMid meet">

<g transform="translate(0.000000,512.000000) scale(0.100000,-0.100000)"
fill="#000000" stroke="none">
<path d="M1752 5065 c-145 -40 -269 -114 -391 -234 l-96 -93 -395 86 c-218 47
-403 86 -412 86 -20 0 -125 -178 -112 -189 5 -5 135 -88 289 -186 154 -98 284
-181 288 -185 7 -6 -315 -390 -333 -398 -5 -2 -315 63 -442 92 -13 3 -28 -15
-58 -66 -22 -39 -39 -72 -38 -73 2 -1 93 -59 203 -130 110 -70 214 -138 231
-150 16 -13 94 -124 174 -248 l143 -226 47 27 c26 15 57 34 70 43 l23 15 -46
216 c-26 118 -47 222 -47 230 0 14 387 355 394 347 2 -2 83 -130 181 -284 98
-154 184 -286 190 -294 11 -11 28 -4 104 40 50 29 91 57 91 61 0 5 -38 185
-85 400 -47 216 -85 398 -85 405 0 8 38 51 84 96 46 45 106 117 134 160 48 74
106 204 119 267 8 44 -5 96 -34 130 -49 59 -111 76 -191 55z m102 -111 c23
-23 19 -69 -13 -150 -43 -109 -111 -203 -222 -306 l-99 -93 85 -392 c47 -216
85 -399 85 -407 0 -12 -28 -31 -35 -24 -2 2 -89 138 -194 302 -105 165 -193
301 -195 303 -2 2 -422 -354 -534 -452 -1 -1 16 -87 38 -191 22 -103 39 -191
38 -195 -2 -4 -52 71 -113 166 l-110 173 -177 113 c-97 63 -176 114 -175 115
1 1 43 -7 92 -18 50 -10 138 -30 197 -42 l107 -24 203 236 c112 130 215 251
231 268 l27 32 -304 193 c-168 107 -305 199 -306 205 -1 34 34 29 424 -56
l399 -88 91 95 c117 123 211 188 341 234 63 22 99 23 119 3z"/>
<path d="M2360 4928 c0 -63 9 -72 64 -64 l46 7 0 50 0 49 -55 0 -55 0 0 -42z"/>
<path d="M2570 4921 l0 -50 45 -7 c25 -3 48 -5 50 -3 2 3 7 28 11 57 l7 52
-57 0 -56 0 0 -49z"/>
<path d="M2203 4950 c-24 -4 -45 -9 -49 -12 -3 -3 -2 -27 2 -53 l7 -47 36 6
c20 3 42 6 49 6 7 0 12 14 11 38 -1 60 -8 68 -56 62z"/>
<path d="M2786 4951 c-2 -3 -6 -26 -7 -51 -3 -43 -2 -45 26 -51 68 -15 72 -13
79 38 3 25 4 48 1 51 -8 8 -95 19 -99 13z"/>
<path d="M2996 4912 c-11 -18 -18 -90 -10 -95 5 -2 28 -8 50 -11 39 -7 42 -6
47 21 4 15 9 37 13 49 5 18 0 23 -40 33 -54 13 -53 13 -60 3z"/>
<path d="M3186 4815 c-15 -46 -15 -46 10 -55 62 -24 73 -23 84 4 25 67 24 72
-18 84 -57 17 -59 16 -76 -33z"/>
<path d="M4320 4790 l0 -50 50 0 50 0 0 50 0 50 -50 0 -50 0 0 -50z"/>
<path d="M4530 4790 l0 -50 50 0 50 0 0 50 0 50 -50 0 -50 0 0 -50z"/>
<path d="M4740 4790 l0 -50 50 0 50 0 0 50 0 50 -50 0 -50 0 0 -50z"/>
<path d="M3386 4750 c-9 -22 -16 -44 -16 -48 0 -9 64 -42 80 -42 9 0 50 71 50
85 0 5 -85 45 -95 45 -1 0 -10 -18 -19 -40z"/>
<path d="M3572 4654 c-13 -26 -22 -47 -20 -48 37 -25 83 -45 88 -39 4 4 17 24
29 45 l21 36 -46 26 c-26 14 -47 26 -48 26 -1 0 -12 -21 -24 -46z"/>
<path d="M3751 4546 l-30 -44 39 -26 c22 -14 42 -26 44 -26 2 0 18 17 35 39
l30 38 -44 32 -44 31 -30 -44z"/>
<path d="M3921 4423 c-17 -21 -31 -40 -31 -43 0 -3 16 -18 36 -34 l36 -28 34
33 c19 18 34 36 34 40 0 4 -18 21 -39 38 l-39 31 -31 -37z"/>
<path d="M3215 4334 c-402 -60 -716 -220 -991 -507 -215 -222 -357 -494 -426
-810 -19 -86 -22 -134 -22 -312 -1 -237 15 -344 81 -550 155 -485 530 -1068
1016 -1581 37 -39 67 -78 67 -85 0 -8 9 -19 19 -24 11 -6 108 -95 218 -199
109 -103 208 -195 221 -203 21 -14 25 -13 66 20 24 20 115 107 202 194 738
733 1213 1449 1358 2051 119 491 -3 1011 -331 1414 -72 88 -211 220 -299 283
-39 27 -85 69 -103 92 -28 38 -34 41 -51 31 -16 -10 -26 -8 -62 11 -24 13 -45
26 -48 28 -2 2 9 14 25 27 l29 23 -35 41 -34 41 -37 -36 c-31 -30 -35 -39 -25
-52 14 -17 10 -16 -102 24 -168 60 -269 77 -496 80 -115 2 -223 1 -240 -1z
m508 -124 c204 -43 397 -125 572 -243 113 -77 312 -274 390 -386 241 -346 332
-776 250 -1177 -101 -490 -468 -1100 -1049 -1744 -149 -165 -452 -470 -467
-470 -11 0 -329 299 -329 309 0 3 -44 51 -98 106 -240 247 -511 590 -690 872
-319 501 -461 951 -424 1341 21 219 64 377 154 557 203 409 568 706 1002 815
63 16 147 33 188 39 114 15 386 5 501 -19z"/>
<path d="M3178 4010 c-240 -50 -416 -146 -588 -320 -128 -128 -227 -286 -283
-450 -149 -436 -35 -907 296 -1227 53 -51 128 -113 167 -139 421 -272 956
-256 1351 41 415 311 577 851 404 1346 -133 381 -498 680 -919 754 -121 21
-317 19 -428 -5z m190 -377 l-3 -288 -65 3 c-89 4 -211 20 -293 39 -78 17 -76
5 -19 141 70 167 188 314 294 366 95 46 89 66 86 -261z m190 256 c118 -59 242
-223 317 -422 l24 -66 -67 -14 c-71 -16 -210 -34 -304 -40 l-58 -4 0 289 c0
234 3 288 13 288 8 0 41 -14 75 -31z m-507 -46 c-88 -114 -149 -225 -192 -345
l-23 -66 -61 23 c-76 28 -162 71 -170 85 -10 16 121 138 217 204 64 43 224
125 246 126 2 0 -6 -12 -17 -27z m855 -34 c102 -52 183 -112 268 -195 64 -64
67 -69 50 -82 -22 -16 -132 -68 -185 -87 l-36 -13 -37 97 c-42 105 -112 231
-163 291 -18 21 -33 41 -33 44 0 9 54 -13 136 -55z m-1171 -450 c40 -16 69
-34 69 -41 -1 -7 -9 -56 -18 -108 -9 -52 -20 -140 -24 -195 l-7 -100 -202 -3
-203 -2 0 29 c0 120 75 346 161 487 l19 32 68 -36 c37 -20 99 -48 137 -63z
m1644 -29 c51 -100 91 -238 106 -362 l6 -58 -204 0 -204 0 -6 98 c-4 54 -14
139 -23 188 -25 144 -30 130 64 169 46 19 107 47 135 63 l52 30 23 -37 c13
-20 36 -61 51 -91z m-1324 -60 c60 -10 156 -22 213 -26 l102 -7 0 -163 0 -164
-256 0 -257 0 7 83 c8 90 21 183 37 259 9 39 14 48 27 43 9 -3 66 -15 127 -25z
m889 -57 c8 -49 18 -117 21 -153 3 -36 8 -84 11 -107 l5 -43 -255 0 -256 0 0
163 0 163 138 13 c75 7 175 21 222 31 47 10 88 18 91 19 4 1 14 -38 23 -86z
m-1182 -518 c7 -94 29 -245 44 -296 3 -11 -14 -22 -68 -43 -40 -15 -102 -44
-138 -63 l-64 -35 -19 24 c-29 35 -87 154 -114 233 -24 72 -53 215 -53 267 l0
28 203 -2 202 -3 7 -110z m603 -55 l0 -165 -40 -2 c-103 -6 -259 -26 -333 -42
l-81 -18 -10 51 c-20 102 -30 173 -37 259 l-7 87 254 -2 254 -3 0 -165z m608
163 c12 -20 -32 -365 -48 -381 -2 -2 -58 6 -125 18 -67 12 -169 24 -226 27
l-104 6 0 169 0 168 249 0 c138 0 252 -3 254 -7z m517 -12 c0 -39 -31 -199
-51 -261 -24 -73 -90 -213 -117 -248 l-19 -24 -89 45 c-49 24 -111 52 -137 62
-40 15 -48 22 -43 39 14 59 36 211 41 291 4 50 8 96 10 103 3 9 53 12 205 12
189 0 200 -1 200 -19z m-1120 -711 c0 -236 -3 -290 -13 -290 -8 0 -41 14 -75
30 -126 64 -250 231 -322 437 l-19 53 37 9 c89 23 256 47 350 50 l42 1 0 -290z
m360 264 c52 -8 112 -19 132 -25 l38 -10 -17 -42 c-102 -266 -234 -426 -390
-472 l-23 -6 0 291 0 292 83 -7 c45 -3 125 -13 177 -21z m-875 -116 c30 -93
113 -251 165 -316 28 -35 50 -65 48 -67 -9 -9 -168 70 -244 121 -80 53 -224
183 -224 202 0 13 202 110 232 112 3 0 14 -24 23 -52z m1203 32 c49 -19 171
-77 181 -86 7 -7 -108 -121 -169 -168 -68 -52 -155 -103 -238 -139 -35 -15
-65 -27 -68 -27 -2 0 18 27 44 60 53 65 136 219 172 318 12 34 23 62 24 62 0
0 25 -9 54 -20z"/>
<path d="M2378 1936 l-37 -33 40 -39 41 -39 34 39 34 40 -32 33 c-17 18 -34
33 -37 33 -4 -1 -23 -16 -43 -34z"/>
<path d="M2530 1793 l-31 -38 38 -32 c21 -18 41 -33 44 -33 4 0 19 18 34 40
l28 41 -34 29 c-19 16 -37 29 -41 30 -3 0 -21 -17 -38 -37z"/>
<path d="M2703 1675 c-13 -19 -23 -38 -23 -43 0 -8 71 -52 84 -52 5 0 46 74
46 84 0 6 -66 46 -76 46 -5 0 -19 -16 -31 -35z"/>
<path d="M2887 1579 c-9 -23 -14 -45 -12 -49 3 -5 25 -15 49 -23 l45 -15 15
46 c9 25 16 47 16 49 0 5 -72 33 -85 33 -6 0 -19 -19 -28 -41z"/>
<path d="M4202 1467 l-30 -42 41 -30 40 -29 29 34 c15 19 28 39 28 46 0 6 -18
23 -40 38 l-39 26 -29 -43z"/>
<path d="M4080 1300 c-18 -23 -31 -42 -29 -44 44 -33 77 -56 81 -56 7 0 62 80
57 83 -2 2 -20 16 -40 31 l-37 27 -32 -41z"/>
<path d="M3954 1136 c-15 -18 -26 -36 -26 -40 1 -3 18 -20 37 -38 39 -34 36
-35 82 31 16 23 16 24 -18 52 -19 16 -37 29 -41 29 -4 0 -19 -15 -34 -34z"/>
<path d="M3815 973 l-29 -36 38 -33 c43 -37 49 -36 87 17 l20 28 -33 30 c-18
17 -37 30 -43 30 -5 0 -23 -16 -40 -36z"/>
<path d="M401 3528 c-6 -17 -10 -32 -9 -33 2 -1 17 -7 33 -12 17 -6 37 -14 46
-18 12 -5 19 2 28 26 6 18 11 33 11 34 0 4 -79 35 -89 35 -5 0 -14 -14 -20
-32z"/>
<path d="M341 3353 c-6 -21 -11 -43 -11 -50 0 -11 58 -33 86 -33 10 0 40 89
32 95 -7 5 -72 25 -84 25 -7 0 -18 -17 -23 -37z"/>
<path d="M296 3171 c-3 -9 -8 -32 -11 -52 l-7 -36 48 -8 c48 -7 63 1 64 35 0
8 3 24 6 36 5 19 0 22 -45 31 -43 9 -51 8 -55 -6z"/>
<path d="M257 2929 c-4 -29 -5 -54 -4 -55 1 -1 25 -4 52 -5 l50 -3 3 52 c3 51
3 52 -25 52 -15 0 -37 3 -49 6 -19 5 -22 0 -27 -47z"/>
<path d="M250 2710 l0 -50 50 0 50 0 0 50 0 50 -50 0 -50 0 0 -50z"/>
<path d="M1513 2573 c9 -163 8 -161 63 -153 24 4 47 9 50 12 3 3 0 43 -6 89
-5 46 -10 103 -10 126 l0 43 -52 0 -51 0 6 -117z"/>
<path d="M283 2553 c-35 -5 -38 -13 -27 -72 6 -31 8 -32 53 -29 l46 3 0 50 c0
55 -3 57 -72 48z"/>
<path d="M303 2343 c-24 -5 -27 -18 -17 -73 7 -32 7 -32 52 -26 25 3 47 8 50
11 2 2 1 25 -2 50 -8 48 -15 51 -83 38z"/>
<path d="M1603 2229 c-18 -5 -33 -13 -33 -18 0 -5 18 -66 41 -136 82 -256 217
-535 391 -807 l49 -77 40 26 c21 14 39 29 39 34 0 4 -37 68 -82 141 -154 251
-283 529 -353 761 -28 93 -29 94 -92 76z"/>
<path d="M351 2139 c-28 -9 -32 -14 -27 -32 4 -12 9 -34 12 -49 7 -32 11 -33
65 -16 42 12 46 24 28 77 -12 33 -22 36 -78 20z"/>
<path d="M425 1942 c-22 -8 -41 -16 -43 -17 -4 -3 37 -95 42 -95 3 0 24 7 47
16 43 18 44 23 19 89 -11 29 -11 29 -65 7z"/>
<path d="M503 1748 l-41 -21 21 -44 c11 -23 25 -43 29 -43 12 0 88 39 88 46 0
12 -41 84 -48 83 -4 0 -26 -10 -49 -21z"/>
<path d="M608 1567 c-21 -12 -38 -25 -38 -30 0 -4 11 -25 25 -47 l25 -40 40
26 c22 15 40 31 40 35 0 11 -43 79 -50 78 -3 0 -22 -10 -42 -22z"/>
<path d="M722 1392 c-18 -15 -32 -31 -32 -37 0 -5 13 -25 29 -44 l28 -34 37
29 c20 16 36 33 36 37 0 11 -51 77 -59 77 -3 0 -21 -13 -39 -28z"/>
<path d="M850 1225 l-34 -35 37 -38 37 -37 37 37 37 38 -34 35 c-19 19 -37 35
-40 35 -3 0 -21 -16 -40 -35z"/>
<path d="M1001 1083 c-17 -20 -31 -41 -31 -44 0 -4 17 -21 38 -37 l38 -30 33
40 c18 21 31 40 29 41 -2 1 -19 17 -39 35 l-36 33 -32 -38z"/>
<path d="M1156 943 l-27 -38 38 -32 c21 -18 40 -33 43 -32 3 0 18 18 34 41
l28 42 -33 28 c-19 15 -39 28 -45 28 -6 0 -23 -17 -38 -37z"/>
<path d="M1326 820 l-26 -39 46 -27 c50 -29 48 -30 79 28 8 15 15 29 15 32 0
7 -66 46 -77 46 -6 0 -22 -18 -37 -40z"/>
<path d="M1510 719 c-12 -23 -20 -42 -18 -44 6 -5 87 -45 92 -45 4 0 36 76 36
88 0 9 -64 42 -80 42 -5 0 -19 -18 -30 -41z"/>
<path d="M1705 644 c-22 -54 -20 -61 32 -78 25 -9 47 -15 48 -13 6 7 25 72 25
84 0 13 -15 21 -67 37 -19 6 -25 1 -38 -30z"/>
<path d="M230 565 l0 -55 55 0 55 0 0 55 0 55 -55 0 -55 0 0 -55z"/>
<path d="M440 565 l0 -56 53 3 52 3 0 50 0 50 -52 3 -53 3 0 -56z"/>
<path d="M650 565 l0 -56 53 3 52 3 0 50 0 50 -52 3 -53 3 0 -56z"/>
<path d="M1901 574 c-16 -57 -14 -61 25 -68 19 -4 41 -9 48 -12 15 -6 42 84
29 97 -4 4 -27 11 -50 15 -41 6 -41 6 -52 -32z"/>
<path d="M2103 519 c-11 -56 -13 -54 53 -63 l42 -6 7 46 c3 26 3 50 -2 54 -4
4 -27 10 -49 14 l-41 6 -10 -51z"/>
<path d="M2737 543 c-14 -3 -17 -11 -13 -26 3 -12 6 -35 6 -51 0 -29 0 -29 51
-23 29 4 53 8 54 9 1 2 0 23 -4 48 -6 43 -7 45 -41 47 -19 0 -43 -1 -53 -4z"/>
<path d="M2310 491 c0 -52 10 -61 71 -61 25 0 27 4 31 48 5 55 -2 62 -59 62
l-43 0 0 -49z"/>
<path d="M2520 480 l0 -50 50 0 50 0 0 50 0 50 -50 0 -50 0 0 -50z"/>
<path d="M4440 480 l0 -50 55 0 55 0 0 50 0 50 -55 0 -55 0 0 -50z"/>
<path d="M4650 480 l0 -50 55 0 55 0 0 50 0 50 -55 0 -55 0 0 -50z"/>
<path d="M4860 480 l0 -50 55 0 55 0 0 50 0 50 -55 0 -55 0 0 -50z"/>
<path d="M1190 220 l0 -50 55 0 55 0 0 50 0 50 -55 0 -55 0 0 -50z"/>
<path d="M1400 220 l0 -50 55 0 55 0 0 50 0 50 -55 0 -55 0 0 -50z"/>
<path d="M1610 220 l0 -50 55 0 55 0 0 50 0 50 -55 0 -55 0 0 -50z"/>
</g>
</svg>
