<?xml version="1.0" encoding="utf-8"?>
<!-- Generator: Adobe Illustrator 25.0.1, SVG Export Plug-In . SVG Version: 6.00 Build 0)  -->
<svg version="1.0" id="katman_1" xmlns="http://www.w3.org/2000/svg" xmlns:xlink="http://www.w3.org/1999/xlink" x="0px" y="0px"
	 viewBox="0 0 74.6 48.1" style="enable-background:new 0 0 74.6 48.1;" xml:space="preserve">
<style type="text/css">
	.st0{filter:url(#Adobe_OpacityMaskFilter);}
	.st1{fill-rule:evenodd;clip-rule:evenodd;fill:#FFFFFF;}
	.st2{mask:url(#mask-2_1_);fill-rule:evenodd;clip-rule:evenodd;fill:#D8D8D8;}
	.st3{fill-rule:evenodd;clip-rule:evenodd;fill:#00216D;}
	.st4{filter:url(#Adobe_OpacityMaskFilter_1_);}
	.st5{mask:url(#mask-4_1_);fill:#00216D;}
	.st6{filter:url(#Adobe_OpacityMaskFilter_2_);}
	.st7{mask:url(#mask-6_1_);fill-rule:evenodd;clip-rule:evenodd;fill:#F8941A;}
	.st8{fill-rule:evenodd;clip-rule:evenodd;fill:#F8941A;}
</style>
<desc>Created with Sketch.</desc>
<g id="Page-1">
	<g id="where-we-fly">
		<g id="Group-3" transform="translate(6.307588, 30.972510)">
			<g id="Fill-1-Clipped">
				<g id="path-1_1_">
				</g>
				<defs>
					<filter id="Adobe_OpacityMaskFilter" filterUnits="userSpaceOnUse" x="22.4" y="6.3" width="18.5" height="4.7">
						<feColorMatrix  type="matrix" values="1 0 0 0 0  0 1 0 0 0  0 0 1 0 0  0 0 0 1 0"/>
					</filter>
				</defs>
				<mask maskUnits="userSpaceOnUse" x="22.4" y="6.3" width="18.5" height="4.7" id="mask-2_1_">
					<g class="st0">
						<polygon id="path-1_2_" class="st1" points="22.4,6.3 40.9,6.3 40.9,11 22.4,11 						"/>
					</g>
				</mask>
				<path id="Fill-1" class="st2" d="M40.9,8.6c0,1.3-4.1,2.3-9.2,2.3s-9.2-1-9.2-2.3s4.1-2.3,9.2-2.3S40.9,7.3,40.9,8.6"/>
			</g>
		</g>
		<path id="Fill-4" class="st3" d="M27.2,12.5c-0.3,0.1-0.7,0.2-1.1,0.4c-1.4,0.5-2.9,1.2-3.8,2.1c-0.4,0.4-0.5,0.6-0.5,0.7
			c0,0,0,0.1,0,0.1c0,0,0,0,0,0c0,0,0.4,0.3,1.7,0.6c0.2-0.4,0.9-1,2.5-1.8c0.2-0.1,0.4-0.2,0.5-0.2C26.7,13.7,26.9,13.1,27.2,12.5"
			/>
		<g id="Group-8" transform="translate(4.505420, 0.335654)">
			<g id="Fill-6-Clipped">
				<g id="path-3_1_">
				</g>
				<defs>
					<filter id="Adobe_OpacityMaskFilter_1_" filterUnits="userSpaceOnUse" x="22.4" y="6.1" width="21.9" height="33">
						<feColorMatrix  type="matrix" values="1 0 0 0 0  0 1 0 0 0  0 0 1 0 0  0 0 0 1 0"/>
					</filter>
				</defs>
				<mask maskUnits="userSpaceOnUse" x="22.4" y="6.1" width="21.9" height="33" id="mask-4_1_">
					<g class="st4">
						<polygon id="path-3_2_" class="st1" points="22.4,6.1 44.3,6.1 44.3,39.1 22.4,39.1 						"/>
					</g>
				</mask>
				<path id="Fill-6" class="st5" d="M44.3,17c-0.5,0.1-1.6,0.3-2.6,0.5c-0.2,0-0.3,0.1-0.5,0.1C41,21.7,37.6,25,33.4,25
					c-3.5,0-6.5-2.3-7.5-5.5c-1.5,0-2.3-0.1-3.4-0.2c1.6,7.8,10.8,19.9,10.8,19.9s11-14.5,11-22C44.3,17.1,44.3,17.1,44.3,17
					 M25.7,15.7c0.7-3.6,3.8-6.4,7.7-6.4c2.9,0,5.4,1.6,6.8,3.9c0.5-0.1,1-0.2,1.4-0.3c0.3-0.1,0.6-0.1,0.7-0.1
					c0.4-0.1,0.7-0.1,1.1-0.2c-1.7-3.8-5.6-6.5-10-6.5c-5.6,0-10.2,4.2-10.9,9.6c0.7,0.1,1.5,0.1,2.3,0.1
					C25.1,15.8,25.4,15.8,25.7,15.7"/>
			</g>
		</g>
		<g id="Group-11" transform="translate(10.813008, 4.841073)">
			<g id="Fill-9-Clipped">
				<g id="path-5_1_">
				</g>
				<defs>
					<filter id="Adobe_OpacityMaskFilter_2_" filterUnits="userSpaceOnUse" x="22.4" y="5.7" width="19" height="13.6">
						<feColorMatrix  type="matrix" values="1 0 0 0 0  0 1 0 0 0  0 0 1 0 0  0 0 0 1 0"/>
					</filter>
				</defs>
				<mask maskUnits="userSpaceOnUse" x="22.4" y="5.7" width="19" height="13.6" id="mask-6_1_">
					<g class="st6">
						<polygon id="path-5_2_" class="st1" points="22.4,5.7 41.4,5.7 41.4,19.2 22.4,19.2 						"/>
					</g>
				</mask>
				<path id="Fill-9" class="st7" d="M29.4,13.5c0,0-2.3,0.1-2.4,0.1c-0.2,0-0.4,0-0.5,0c-0.3-0.1-1-0.1-1-0.1c0,0,0,0,0,0
					c-0.5,0.4-2.1,1.7-2.4,1.9c-0.2,0.1-0.3,0.2-0.3,0.2c-0.1,0-0.2,0-0.3,0c0,0-0.1,0-0.1,0c0.7-0.7,1.3-1.5,1.9-2.2
					c-0.2-0.1,0-0.3,0.1-0.5c0,0-1.1-1.4-1.6-2c0.1,0,0.4-0.2,0.5-0.3c0.1,0,0.3,0.1,0.3,0.1s1.3,0.7,1.3,0.7c0,0,0.1-0.4,0.1-0.6
					c0,0,0,0,0.2-0.1c0.1-0.1,0.2,0,0.2,0c0,0,0.4,1,0.4,1c0.1,0,0.2,0.1,0.3,0.1c0,0,0.4-0.1,0.7-0.2c0.3-0.1,1.7-0.5,2.7-0.8
					c-0.6-2-1.4-4.6-1.6-5c0,0,0.4-0.1,0.9-0.1c0.1,0,0.2,0.1,0.2,0.1c1,1.2,3.1,3.9,3.2,4.1c1.1-0.3,3.5-0.8,3.8-0.9
					c0.9-0.2,1.6-0.2,2.3-0.2h0c0.8,0.1,1.8,0.2,2.4,0.3c0.1,0,0.2,0.1,0.3,0.1c0.4,0.3,0.1,0.8-0.2,1c-0.3,0.3-2.3,1.2-3.1,1.4
					c-0.7,0.2-2.9,0.6-3.8,0.7c-0.2,0-0.3,0.1-0.4,0.1c-0.1,0-0.2,0-0.3,0.1c-0.1,0.1-0.3,0.3-0.6,0.6c-0.1,0.1-0.8,0.8-0.8,0.8
					c-1.1,1.1-2.6,2.4-3,2.9c-0.3,0.3-1.7,1.5-2.6,2c-0.3,0.2-0.4,0.2-0.6,0.2c-0.3,0-1.2,0.1-1.2,0.1S29.3,13.8,29.4,13.5"/>
			</g>
		</g>
		<path id="Fill-12" class="st8" d="M32,17.3c0,0-10.3,1.3-9.4-0.5c0,0-2,1-0.1,2.1c0,0,3,0.6,10.6-0.5L32,17.3z"/>
	</g>
</g>
</svg>
